<svg width="20" height="20" viewBox="0 0 20 20" fill="none" xmlns="http://www.w3.org/2000/svg">
<path d="M3.67239 9.32546C3.75164 9.32546 3.8309 9.32546 3.90487 9.32546C8.69709 9.32546 13.4893 9.32546 18.2815 9.32546C18.4136 9.32546 18.5457 9.32546 18.6725 9.35817C19.0635 9.46723 19.3277 9.87071 19.2801 10.2687C19.2273 10.7159 18.9103 11.0321 18.4823 11.0539C18.3978 11.0594 18.3132 11.0594 18.2234 11.0594C13.447 11.0594 8.66539 11.0594 3.88902 11.0594C3.80976 11.0594 3.73579 11.0594 3.65654 11.0594C3.6354 11.0921 3.60899 11.1248 3.58785 11.1521C3.65126 11.1848 3.73051 11.2011 3.78335 11.2502C5.18878 12.6951 6.58894 14.1455 7.99437 15.5904C8.24799 15.8521 8.36951 16.1466 8.26912 16.5119C8.10533 17.1117 7.40261 17.3407 6.93237 16.9481C6.87425 16.899 6.8267 16.8445 6.77386 16.7954C4.87177 14.8325 2.96967 12.8696 1.06758 10.9067C0.597337 10.4214 0.597337 9.9525 1.06229 9.47268C2.98024 7.49341 4.90347 5.50869 6.82141 3.52942C7.07503 3.2677 7.36034 3.14775 7.71434 3.25134C8.28497 3.42037 8.50688 4.13465 8.14231 4.61448C8.08419 4.69081 8.02079 4.75624 7.9521 4.82167C6.56252 6.25569 5.17293 7.6897 3.78335 9.11826C3.73579 9.16734 3.66711 9.20005 3.60899 9.24367C3.6354 9.27639 3.65126 9.30365 3.67239 9.32546Z" fill="white"/>
</svg>
