<svg width="20" height="20" viewBox="0 0 20 20" fill="none" xmlns="http://www.w3.org/2000/svg">
<path d="M10 2.55944C14.1026 2.55944 17.4406 5.89744 17.4406 10C17.4406 14.1026 14.1026 17.4406 10 17.4406C5.89744 17.4406 2.55944 14.1026 2.55944 10C2.55944 5.89744 5.89744 2.55944 10 2.55944ZM10 2C5.58042 2 2 5.58042 2 10C2 14.4196 5.58042 18 10 18C14.4196 18 18 14.4196 18 10C18 5.58042 14.4196 2 10 2ZM5.7669 8.86247C5.83217 8.69464 5.93473 8.55478 6.12121 8.51748C6.21445 8.49883 6.31702 8.48951 6.41958 8.48019C7.11888 8.41492 7.80886 8.35897 8.50816 8.29371C8.59207 8.28438 8.62937 8.25641 8.66667 8.17249C8.96503 7.46387 9.2634 6.76457 9.5711 6.05594C9.65501 5.86014 9.78555 5.74825 10 5.74825C10.2145 5.74825 10.3543 5.86946 10.4289 6.05594C10.7366 6.77389 11.0443 7.48252 11.3427 8.20047C11.3613 8.25641 11.3893 8.27506 11.4452 8.28438C11.7716 8.31235 12.1072 8.34033 12.4336 8.37762C12.8345 8.41492 13.2448 8.45221 13.6457 8.48951C13.7016 8.49883 13.7669 8.49883 13.8228 8.50816C14.0093 8.53613 14.1399 8.63869 14.1958 8.82517C14.2517 9.01165 14.1958 9.17016 14.0559 9.3007C13.6923 9.61772 13.338 9.93473 12.9744 10.2517C12.7413 10.4569 12.5082 10.662 12.2751 10.8671C12.2284 10.9044 12.2284 10.9324 12.2378 10.9883C12.4149 11.7529 12.5828 12.5082 12.7599 13.2727C12.8252 13.5804 12.676 13.8228 12.3776 13.8601C12.2657 13.8788 12.1725 13.8415 12.0793 13.7855C11.5664 13.4779 11.0629 13.1795 10.5501 12.8718C10.3916 12.7786 10.2238 12.676 10.0653 12.5828C10.0186 12.5548 9.98135 12.5548 9.93473 12.5828C9.2634 12.9837 8.6014 13.3846 7.93007 13.7855C7.68765 13.9347 7.41725 13.8788 7.27739 13.655C7.21212 13.5431 7.19347 13.4219 7.22145 13.2914C7.3986 12.5268 7.56643 11.7716 7.74359 11.007C7.76224 10.9417 7.75291 10.9044 7.69697 10.8578C7.10956 10.345 6.52214 9.83217 5.93473 9.31002C5.86014 9.24476 5.82284 9.13287 5.7669 9.04895C5.7669 8.98368 5.7669 8.91841 5.7669 8.86247ZM6.41026 9.02098C6.44755 9.04895 6.45688 9.05828 6.47552 9.0676C6.6993 9.2634 6.92308 9.45921 7.15618 9.66434C7.48252 9.95338 7.80886 10.2424 8.1352 10.5221C8.28438 10.6527 8.34033 10.8112 8.29371 11.007C8.20979 11.38 8.12587 11.7436 8.04196 12.1165C7.95804 12.4895 7.87413 12.8625 7.79021 13.2448C7.82751 13.2261 7.85548 13.2075 7.87413 13.1981C8.48951 12.8252 9.1049 12.4615 9.72028 12.0886C9.91608 11.9767 10.0932 11.9767 10.289 12.0886C10.9044 12.4615 11.5105 12.8252 12.1259 13.1888C12.1538 13.2075 12.1818 13.2168 12.2098 13.2354C12.2098 13.2168 12.2098 13.2075 12.2098 13.2075C12.042 12.4802 11.8834 11.7529 11.7156 11.0256C11.669 10.8298 11.7249 10.662 11.8741 10.5315C12.2937 10.1678 12.7133 9.79487 13.1329 9.43123C13.2821 9.3007 13.4219 9.17016 13.5897 9.0303C13.4499 9.02098 13.338 9.01165 13.2168 9.00233C12.62 8.94639 12.014 8.89044 11.4172 8.84382C11.1375 8.80653 10.9604 8.69464 10.8578 8.43357C10.5967 7.79953 10.317 7.1655 10.0466 6.53147C10.028 6.49417 10.0186 6.4662 9.99068 6.41958C9.85082 6.74592 9.72028 7.04429 9.58974 7.35198C9.42191 7.74359 9.25408 8.12587 9.09557 8.51748C9.02098 8.68531 8.90909 8.7972 8.72261 8.81585C8.48951 8.84382 8.25641 8.86247 8.02331 8.88112C7.56643 8.91841 7.10956 8.96503 6.662 9.00233C6.58741 9.00233 6.51282 9.01166 6.41026 9.02098Z" fill="white" stroke="white" stroke-width="0.5"/>
</svg>
