<svg width="20" height="20" viewBox="0 0 20 20" fill="none" xmlns="http://www.w3.org/2000/svg">
<path d="M9.96011 2C9.65452 2.07106 9.35912 2.1675 9.10446 2.37054C8.49838 2.84259 8.27428 3.6801 8.57478 4.39579C8.87018 5.09625 9.61378 5.54292 10.3421 5.45664C11.1621 5.35512 11.7733 4.7714 11.8853 3.98972C12.0228 3.04054 11.4066 2.19288 10.4592 2.02538C10.4338 2.0203 10.4134 2.01015 10.3879 2C10.2453 2 10.1027 2 9.96011 2Z" fill="white"/>
<path d="M10.3878 17.8915C10.6883 17.8205 10.9787 17.7241 11.2333 17.5312C11.8496 17.0542 12.0737 16.2322 11.7834 15.5066C11.4982 14.8012 10.7444 14.3445 10.0059 14.4359C9.18587 14.5373 8.57469 15.1209 8.46264 15.9024C8.32513 16.8462 8.9414 17.6936 9.89382 17.8611C9.91928 17.8661 9.93965 17.8763 9.96512 17.8864C10.1026 17.8915 10.2452 17.8915 10.3878 17.8915Z" fill="white"/>
<path d="M10.1739 8.21553C9.22153 8.21553 8.43719 8.99224 8.43719 9.94663C8.43719 10.901 9.21644 11.6828 10.1739 11.6828C11.1264 11.6828 11.9107 10.901 11.9107 9.94663C11.9107 8.99224 11.1315 8.21553 10.1739 8.21553Z" fill="white"/>
</svg>
