<svg width="10" height="15" viewBox="0 0 10 15" fill="none" xmlns="http://www.w3.org/2000/svg">
<g clip-path="url(#clip0_2_122)">
<path d="M9.99534 2.40784C9.9929 1.25089 9.29346 0.311382 8.26387 0.0536865C8.17827 0.0322119 8.09268 0.0187903 8.00708 0C7.97284 0 7.93616 0 7.90192 0C7.6916 0 7.48128 0 7.27096 0C5.71312 0 4.15284 0 2.595 0C2.39446 0 2.19148 0 1.99094 0H1.96404V0.00536865C1.78796 0.0510022 1.60454 0.0805297 1.43824 0.153006C0.631193 0.4966 0.161641 1.14621 0.0222426 2.08304C0.0173514 2.11793 0.00756909 2.15283 0.00267792 2.18772C0.00267792 4.38887 0.00267792 10.6138 0.00267792 12.815C0.0466985 13.0163 0.0760455 13.223 0.137185 13.4136C0.425764 14.294 1.13009 14.8899 1.96648 14.9839V15H2.59744C4.15528 15 5.71557 15 7.2734 15H7.90437V14.9946C8.60625 14.9571 9.17607 14.6188 9.59916 13.98C9.87062 13.5693 9.99779 13.1022 10.0002 12.5948C9.99779 10.5413 10.0027 4.46135 9.99534 2.40784ZM9.37172 2.42663C9.37172 2.7058 9.37172 3.05744 9.37172 3.46546H7.89947V0.692555C8.7432 0.751611 9.37172 1.48175 9.37172 2.42663ZM9.37416 10.842H0.626302C0.623857 8.87706 0.623857 6.12294 0.623857 4.15802H9.37172C9.37416 6.12026 9.37416 8.87974 9.37416 10.842ZM7.27096 12.5841H2.595V11.5345H7.27096V12.5841ZM2.595 2.41589H7.27096V3.46546H2.595V2.41589ZM7.27096 0.687187V1.72602H2.595V0.687187C4.15528 0.684503 5.71312 0.684503 7.27096 0.687187ZM1.96648 0.705977V3.46546H0.623857C0.623857 3.05476 0.623857 2.69775 0.623857 2.41589C0.628748 1.52738 1.19368 0.829456 1.96648 0.705977ZM0.711898 13.1505C0.658095 12.9707 0.628748 12.772 0.628748 12.5841C0.628748 12.3023 0.626302 11.9452 0.626302 11.5345H1.96648V14.294C1.37954 14.2028 0.905099 13.7786 0.711898 13.1505ZM4.99901 14.3155C4.19686 14.3155 3.39715 14.3155 2.595 14.3155V13.2767H7.27096V14.3155C6.51283 14.3155 5.75714 14.3155 4.99901 14.3155ZM7.90192 14.3074V11.5345H9.37416C9.37416 11.9426 9.37416 12.2942 9.37416 12.5734C9.37172 13.5183 8.74565 14.243 7.90192 14.3074Z" fill="white"/>
</g>
<defs>
<clipPath id="clip0_2_122">
<rect width="10" height="15" fill="white"/>
</clipPath>
</defs>
</svg>
