<svg width="25" height="25" viewBox="0 0 25 25" fill="none" xmlns="http://www.w3.org/2000/svg">
<path fill-rule="evenodd" clip-rule="evenodd" d="M22.7523 12.5C22.7523 6.87853 18.1366 2.32143 12.4427 2.32143C6.74888 2.32143 2.13312 6.87853 2.13312 12.5C2.13312 18.1215 6.74888 22.6786 12.4427 22.6786C18.1366 22.6786 22.7523 18.1215 22.7523 12.5ZM3.67956 12.5C3.67956 7.72175 7.60296 3.84821 12.4427 3.84821C17.2825 3.84821 21.2059 7.72175 21.2059 12.5C21.2059 17.2782 17.2825 21.1518 12.4427 21.1518C7.60296 21.1518 3.67956 17.2782 3.67956 12.5ZM11.6695 11.7366V7.4182H13.2159V11.7366H17.5899V13.2634H13.2159V17.5818H11.6695V13.2634H7.29551L7.29551 11.7366H11.6695Z" fill="#4CC738"/>
</svg>
