<svg width="12" height="12" viewBox="0 0 12 12" fill="none" xmlns="http://www.w3.org/2000/svg">
<circle cx="6" cy="6" r="6" fill="#024B5C"/>
<path d="M6.56643 5.99999L8.48927 4.07693C8.54216 4.024 8.57135 3.95337 8.57143 3.87806C8.57143 3.80272 8.54225 3.73201 8.48927 3.67915L8.32077 3.51068C8.26779 3.45762 8.19717 3.42856 8.12179 3.42856C8.04653 3.42856 7.9759 3.45762 7.92293 3.51068L6.00009 5.43361L4.07716 3.51068C4.02427 3.45762 3.9536 3.42856 3.87826 3.42856C3.803 3.42856 3.73234 3.45762 3.67944 3.51068L3.51086 3.67915C3.40115 3.78887 3.40115 3.96734 3.51086 4.07693L5.43374 5.99999L3.51086 7.92295C3.45793 7.97598 3.42878 8.0466 3.42878 8.12191C3.42878 8.19722 3.45793 8.26784 3.51086 8.32082L3.6794 8.48929C3.73229 8.54231 3.803 8.57142 3.87822 8.57142C3.95356 8.57142 4.02423 8.54231 4.07712 8.48929L6.00004 6.56632L7.92289 8.48929C7.97586 8.54231 8.04648 8.57142 8.12174 8.57142C8.19705 8.57142 8.26775 8.54231 8.32073 8.48929L8.48923 8.32082C8.54212 8.26788 8.57131 8.19722 8.57131 8.12191C8.57131 8.0466 8.54212 7.97598 8.48923 7.923L6.56643 5.99999Z" fill="white"/>
</svg>
