<svg width="12" height="12" viewBox="0 0 12 12" fill="none" xmlns="http://www.w3.org/2000/svg">
<circle cx="6" cy="6" r="6" fill="#024B5C"/>
<path d="M6.56643 6L8.48927 4.07695C8.54216 4.02401 8.57135 3.95339 8.57143 3.87808C8.57143 3.80273 8.54225 3.73202 8.48927 3.67917L8.32077 3.5107C8.26779 3.45763 8.19717 3.42857 8.12179 3.42857C8.04653 3.42857 7.9759 3.45763 7.92293 3.5107L6.00009 5.43362L4.07716 3.5107C4.02427 3.45763 3.9536 3.42857 3.87826 3.42857C3.803 3.42857 3.73234 3.45763 3.67944 3.5107L3.51086 3.67917C3.40115 3.78889 3.40115 3.96735 3.51086 4.07695L5.43374 6L3.51086 7.92297C3.45793 7.97599 3.42878 8.04662 3.42878 8.12192C3.42878 8.19723 3.45793 8.26786 3.51086 8.32084L3.6794 8.48931C3.73229 8.54233 3.803 8.57143 3.87822 8.57143C3.95356 8.57143 4.02423 8.54233 4.07712 8.48931L6.00004 6.56634L7.92289 8.48931C7.97586 8.54233 8.04648 8.57143 8.12174 8.57143C8.19705 8.57143 8.26775 8.54233 8.32073 8.48931L8.48923 8.32084C8.54212 8.2679 8.57131 8.19723 8.57131 8.12192C8.57131 8.04662 8.54212 7.97599 8.48923 7.92301L6.56643 6Z" fill="white"/>
</svg>
