<svg width="12" height="12" viewBox="0 0 12 12" fill="none" xmlns="http://www.w3.org/2000/svg">
<circle cx="6" cy="6" r="6" fill="#024B5C"/>
<path d="M6.56641 5.99999L8.48926 4.07693C8.54215 4.024 8.57133 3.95337 8.57142 3.87806C8.57142 3.80272 8.54223 3.73201 8.48926 3.67915L8.32075 3.51068C8.26778 3.45762 8.19716 3.42856 8.12177 3.42856C8.04651 3.42856 7.97589 3.45762 7.92291 3.51068L6.00007 5.43361L4.07714 3.51068C4.02425 3.45762 3.95359 3.42856 3.87824 3.42856C3.80298 3.42856 3.73232 3.45762 3.67943 3.51068L3.51084 3.67915C3.40113 3.78887 3.40113 3.96734 3.51084 4.07693L5.43373 5.99999L3.51084 7.92295C3.45791 7.97598 3.42877 8.0466 3.42877 8.12191C3.42877 8.19722 3.45791 8.26784 3.51084 8.32082L3.67939 8.48929C3.73228 8.54231 3.80298 8.57142 3.8782 8.57142C3.95355 8.57142 4.02421 8.54231 4.0771 8.48929L6.00003 6.56632L7.92287 8.48929C7.97585 8.54231 8.04647 8.57142 8.12173 8.57142C8.19703 8.57142 8.26774 8.54231 8.32071 8.48929L8.48921 8.32082C8.54211 8.26788 8.57129 8.19722 8.57129 8.12191C8.57129 8.0466 8.54211 7.97598 8.48921 7.923L6.56641 5.99999Z" fill="white"/>
</svg>
