<svg width="355" height="419" viewBox="0 0 355 419" fill="none" xmlns="http://www.w3.org/2000/svg">
<rect width="355" height="419" rx="6" fill="#2A711F"/>
<rect x="24" width="34" height="419" fill="#1E6413"/>
<rect x="160" width="34" height="419" fill="#1E6413"/>
<rect x="296" width="34" height="419" fill="#1E6413"/>
<rect x="92" width="34" height="419" fill="#1E6413"/>
<rect x="228" width="34" height="419" fill="#1E6413"/>
<rect opacity="0.1" x="39.5" y="31.5" width="275" height="356" rx="88.5" stroke="white"/>
<g opacity="0.2">
<rect x="152" y="116" width="51" height="118" fill="#C9A267"/>
<g clip-path="url(#clip0_2_262)">
<path d="M189.49 116H187.925V126.57H182.684C182.808 126.818 182.858 127.066 182.858 127.364C182.858 127.637 182.784 127.91 182.684 128.158H187.925V137.215H166.564V128.133H171.929C171.805 127.885 171.755 127.637 171.755 127.339C171.755 127.066 171.83 126.793 171.929 126.545H166.564V116H164.999V137.215H152V138.778H203V137.215H189.515V116H189.49Z" fill="white"/>
<path d="M173.817 126.173C173.146 126.173 172.625 126.719 172.625 127.364C172.625 128.034 173.171 128.555 173.817 128.555C174.487 128.555 175.009 128.009 175.009 127.364C175.009 126.694 174.463 126.173 173.817 126.173Z" fill="white"/>
<path d="M177.319 126.173C176.648 126.173 176.127 126.719 176.127 127.364C176.127 128.034 176.673 128.555 177.319 128.555C177.965 128.555 178.511 128.009 178.511 127.364C178.511 126.694 177.965 126.173 177.319 126.173Z" fill="white"/>
<path d="M180.871 126.173C180.2 126.173 179.679 126.719 179.679 127.364C179.679 128.034 180.225 128.555 180.871 128.555C181.517 128.555 182.063 128.009 182.063 127.364C182.088 126.694 181.542 126.173 180.871 126.173Z" fill="white"/>
<path d="M189.49 233.778H187.925V223.208H182.684C182.808 222.96 182.858 222.712 182.858 222.414C182.858 222.141 182.784 221.868 182.684 221.62H187.925V212.563H166.564V221.645H171.929C171.805 221.893 171.755 222.141 171.755 222.439C171.755 222.712 171.83 222.984 171.929 223.233H166.564V233.778H164.999V212.563H152V211H203V212.563H189.515V233.778H189.49Z" fill="white"/>
<path d="M173.817 223.605C173.146 223.605 172.625 223.059 172.625 222.414C172.625 221.744 173.171 221.223 173.817 221.223C174.487 221.223 175.009 221.769 175.009 222.414C175.009 223.084 174.463 223.605 173.817 223.605Z" fill="white"/>
<path d="M177.319 223.605C176.648 223.605 176.127 223.059 176.127 222.414C176.127 221.744 176.673 221.223 177.319 221.223C177.965 221.223 178.511 221.769 178.511 222.414C178.511 223.084 177.965 223.605 177.319 223.605Z" fill="white"/>
<path d="M180.871 223.605C180.2 223.605 179.679 223.059 179.679 222.414C179.679 221.744 180.225 221.223 180.871 221.223C181.517 221.223 182.063 221.769 182.063 222.414C182.088 223.084 181.542 223.605 180.871 223.605Z" fill="white"/>
</g>
</g>
<defs>
<clipPath id="clip0_2_262">
<rect width="51" height="118" fill="white" transform="translate(152 116)"/>
</clipPath>
</defs>
</svg>
