<svg width="12" height="12" viewBox="0 0 12 12" fill="none" xmlns="http://www.w3.org/2000/svg">
<circle cx="6" cy="6" r="6" fill="#024B5C"/>
<path d="M6.56641 6L8.48926 4.07695C8.54215 4.02401 8.57133 3.95339 8.57142 3.87808C8.57142 3.80273 8.54223 3.73202 8.48926 3.67917L8.32075 3.5107C8.26778 3.45763 8.19716 3.42857 8.12177 3.42857C8.04651 3.42857 7.97589 3.45763 7.92291 3.5107L6.00007 5.43362L4.07714 3.5107C4.02425 3.45763 3.95359 3.42857 3.87824 3.42857C3.80298 3.42857 3.73232 3.45763 3.67943 3.5107L3.51084 3.67917C3.40113 3.78889 3.40113 3.96735 3.51084 4.07695L5.43373 6L3.51084 7.92297C3.45791 7.97599 3.42877 8.04662 3.42877 8.12192C3.42877 8.19723 3.45791 8.26786 3.51084 8.32084L3.67939 8.48931C3.73228 8.54233 3.80298 8.57143 3.8782 8.57143C3.95355 8.57143 4.02421 8.54233 4.0771 8.48931L6.00003 6.56634L7.92287 8.48931C7.97585 8.54233 8.04647 8.57143 8.12173 8.57143C8.19703 8.57143 8.26774 8.54233 8.32071 8.48931L8.48921 8.32084C8.54211 8.2679 8.57129 8.19723 8.57129 8.12192C8.57129 8.04662 8.54211 7.97599 8.48921 7.92301L6.56641 6Z" fill="white"/>
</svg>
