<svg width="20" height="20" viewBox="0 0 20 20" fill="none" xmlns="http://www.w3.org/2000/svg">
<path d="M10.012 0C7.35716 0.000530014 4.81118 1.05526 2.93374 2.93233C1.0563 4.80939 0.0010604 7.35516 0 10.01C0.00503436 12.6623 1.0626 15.2042 2.9404 17.0773C4.8182 18.9504 7.3627 20.0016 10.015 20C12.6618 19.996 15.1991 18.9429 17.0707 17.0714C18.9424 15.2 19.9958 12.6628 20 10.016C20.0019 7.36387 18.951 4.81942 17.0783 2.94146C15.2056 1.0635 12.6641 0.00556381 10.012 0ZM14.668 17.486C13.4622 18.2323 12.0985 18.6861 10.686 18.811C10.458 18.831 10.227 18.811 9.997 18.811C8.2932 18.8292 6.62423 18.3283 5.212 17.375C5.18652 17.3544 5.166 17.3283 5.15198 17.2987C5.13796 17.2691 5.13079 17.2368 5.131 17.204C5.23322 16.2445 5.62291 15.3382 6.249 14.604C7.01169 13.6742 8.09754 13.067 9.289 12.904C10.0798 12.7766 10.8899 12.8491 11.6455 13.115C12.4011 13.3808 13.0782 13.8315 13.615 14.426C14.2949 15.1426 14.7397 16.0497 14.89 17.026C14.9169 17.1163 14.909 17.2133 14.868 17.2981C14.8269 17.3829 14.7555 17.4492 14.668 17.484V17.486ZM15.981 16.454C15.6751 15.0979 14.9207 13.8847 13.8399 13.0104C12.7591 12.1361 11.4151 11.6519 10.025 11.636C8.62929 11.642 7.27653 12.1193 6.18616 12.9906C5.09579 13.8619 4.33175 15.076 4.018 16.436C2.85086 15.3654 1.99743 13.9971 1.5494 12.4781C1.10136 10.959 1.07564 9.34659 1.475 7.814C1.94494 6.00612 2.975 4.39334 4.41762 3.20669C5.86025 2.02004 7.64142 1.3204 9.506 1.208C11.3997 1.09976 13.2779 1.60474 14.8619 2.64806C16.446 3.69138 17.6516 5.21747 18.3 7C18.8995 8.6272 18.999 10.3964 18.5858 12.0806C18.1726 13.7648 17.2655 15.287 15.981 16.452V16.454ZM10.022 3.737C9.01568 3.74455 8.05259 4.14706 7.34015 4.85781C6.62771 5.56856 6.22293 6.5307 6.213 7.537C6.21853 8.53893 6.61955 9.49813 7.32878 10.2059C8.03801 10.9136 8.99806 11.3126 10 11.316C10.496 11.3189 10.9877 11.2238 11.4469 11.0363C11.906 10.8487 12.3237 10.5723 12.6758 10.223C13.0279 9.87368 13.3076 9.45826 13.4988 9.00059C13.69 8.54292 13.789 8.052 13.79 7.556C13.7927 6.55103 13.3982 5.58569 12.6925 4.87022C11.9868 4.15474 11.0269 3.74707 10.022 3.736V3.737ZM10.007 10.127C9.3232 10.1234 8.66802 9.85203 8.18197 9.37103C7.69593 8.89003 7.41772 8.23773 7.407 7.554C7.40568 7.21122 7.47216 6.87156 7.6026 6.55457C7.73305 6.23757 7.92489 5.9495 8.16709 5.70692C8.40929 5.46435 8.69707 5.27207 9.01386 5.14114C9.33066 5.0102 9.67021 4.94321 10.013 4.944C10.3531 4.94492 10.6898 5.01295 11.0036 5.14421C11.3174 5.27547 11.6022 5.46736 11.8417 5.7089C12.0812 5.95044 12.2706 6.23687 12.3992 6.55177C12.5278 6.86668 12.593 7.20386 12.591 7.544C12.5845 8.22719 12.3099 8.88049 11.8264 9.36323C11.3429 9.84597 10.6892 10.1195 10.006 10.125L10.007 10.127Z" fill="white"/>
</svg>
