<svg width="375" height="30" viewBox="0 0 375 30" fill="none" xmlns="http://www.w3.org/2000/svg">
<g opacity="0.7">
<path opacity="0.35" d="M340.117 10.5774C340.117 9.52501 340.97 8.6719 342.022 8.6719H356.68C357.732 8.6719 358.585 9.52501 358.585 10.5774V15.8541C358.585 16.9064 357.732 17.7596 356.68 17.7596H342.022C340.97 17.7596 340.117 16.9064 340.117 15.8541V10.5774Z" stroke="white" stroke-width="0.87945"/>
<path opacity="0.4" d="M359.904 11.4568V14.9746C360.612 14.6766 361.072 13.9835 361.072 13.2157C361.072 12.4478 360.612 11.7547 359.904 11.4568Z" fill="white"/>
<path d="M341.436 11.1635C341.436 10.5159 341.961 9.99091 342.608 9.99091H356.093C356.741 9.99091 357.266 10.5159 357.266 11.1635V15.2676C357.266 15.9152 356.741 16.4402 356.093 16.4402H342.608C341.961 16.4402 341.436 15.9152 341.436 15.2676V11.1635Z" fill="white"/>
<path fill-rule="evenodd" clip-rule="evenodd" d="M325.314 10.2326C327.263 10.2327 329.137 10.9815 330.549 12.3243C330.656 12.4279 330.826 12.4266 330.931 12.3213L331.947 11.2953C332 11.2419 332.03 11.1696 332.029 11.0943C332.029 11.019 331.998 10.9471 331.945 10.8943C328.238 7.3417 322.39 7.3417 318.683 10.8943C318.629 10.947 318.599 11.019 318.598 11.0942C318.598 11.1695 318.627 11.2419 318.68 11.2953L319.697 12.3213C319.802 12.4268 319.972 12.4281 320.078 12.3243C321.491 10.9814 323.365 10.2326 325.314 10.2326ZM325.314 13.5708C326.385 13.5707 327.417 13.9687 328.211 14.6874C328.318 14.7894 328.487 14.7872 328.592 14.6824L329.607 13.6564C329.661 13.6026 329.691 13.5296 329.69 13.4537C329.689 13.3778 329.658 13.3054 329.603 13.2527C327.186 11.0045 323.444 11.0045 321.027 13.2527C320.972 13.3054 320.941 13.3779 320.94 13.4538C320.939 13.5296 320.969 13.6026 321.023 13.6564L322.038 14.6824C322.143 14.7872 322.312 14.7894 322.419 14.6874C323.212 13.9692 324.244 13.5712 325.314 13.5708ZM327.348 15.8168C327.349 15.8929 327.32 15.9662 327.265 16.0195L325.509 17.7922C325.457 17.8443 325.387 17.8736 325.314 17.8736C325.24 17.8736 325.17 17.8443 325.119 17.7922L323.362 16.0195C323.308 15.9662 323.278 15.8928 323.279 15.8168C323.281 15.7407 323.314 15.6686 323.37 15.6176C324.492 14.6688 326.135 14.6688 327.257 15.6176C327.313 15.6687 327.346 15.7407 327.348 15.8168Z" fill="white"/>
<path fill-rule="evenodd" clip-rule="evenodd" d="M310.071 8.52542H309.192C308.706 8.52542 308.312 8.91916 308.312 9.40487V17.0268C308.312 17.5125 308.706 17.9062 309.192 17.9062H310.071C310.557 17.9062 310.951 17.5125 310.951 17.0268V9.40487C310.951 8.91916 310.557 8.52542 310.071 8.52542ZM305.087 10.5775H305.967C306.453 10.5775 306.846 10.9713 306.846 11.457V17.0268C306.846 17.5125 306.453 17.9063 305.967 17.9063H305.087C304.602 17.9063 304.208 17.5125 304.208 17.0268V11.457C304.208 10.9713 304.602 10.5775 305.087 10.5775ZM301.863 12.6297H300.984C300.498 12.6297 300.104 13.0234 300.104 13.5091V17.0269C300.104 17.5126 300.498 17.9064 300.984 17.9064H301.863C302.349 17.9064 302.743 17.5126 302.743 17.0269V13.5091C302.743 13.0234 302.349 12.6297 301.863 12.6297ZM297.759 14.3887H296.879C296.394 14.3887 296 14.7824 296 15.2681V17.027C296 17.5127 296.394 17.9065 296.879 17.9065H297.759C298.245 17.9065 298.638 17.5127 298.638 17.027V15.2681C298.638 14.7824 298.245 14.3887 297.759 14.3887Z" fill="white"/>
<path d="M22.7872 17.9354C24.7285 17.9354 25.8817 16.4172 25.8817 13.8464C25.8817 12.8784 25.6965 12.0638 25.3421 11.4343C24.829 10.4557 23.9456 9.92674 22.8295 9.92674C21.1685 9.92674 19.9942 11.0429 19.9942 12.6086C19.9942 14.0792 21.0522 15.1477 22.5068 15.1477C23.4008 15.1477 24.1255 14.7298 24.4852 14.0051H24.5011C24.5011 14.0051 24.5222 14.0051 24.5275 14.0051C24.5381 14.0051 24.5751 14.0051 24.5751 14.0051C24.5751 15.7507 23.9139 16.7928 22.7978 16.7928C22.1419 16.7928 21.634 16.4331 21.4595 15.8565H20.1C20.3275 17.1102 21.3907 17.9354 22.7872 17.9354ZM22.8348 14.0633C21.9567 14.0633 21.3325 13.4391 21.3325 12.5663C21.3325 11.7147 21.9885 11.064 22.8401 11.064C23.6917 11.064 24.3477 11.7252 24.3477 12.5875C24.3477 13.4391 23.7076 14.0633 22.8348 14.0633Z" fill="white"/>
<path d="M28.1142 17.8613C28.6167 17.8613 28.9605 17.5016 28.9605 17.0255C28.9605 16.5442 28.6167 16.1898 28.1142 16.1898C27.6169 16.1898 27.2678 16.5442 27.2678 17.0255C27.2678 17.5016 27.6169 17.8613 28.1142 17.8613ZM28.1142 13.894C28.6167 13.894 28.9605 13.5396 28.9605 13.0635C28.9605 12.5822 28.6167 12.2278 28.1142 12.2278C27.6169 12.2278 27.2678 12.5822 27.2678 13.0635C27.2678 13.5396 27.6169 13.894 28.1142 13.894Z" fill="white"/>
<path d="M33.9119 17.7502H35.2185V16.3273H36.2499V15.1741H35.2185V10.1172H33.293C31.9441 12.1484 30.8703 13.8464 30.1826 15.1107V16.3273H33.9119V17.7502ZM31.4469 15.1265C32.3356 13.5608 33.129 12.3071 33.859 11.228H33.9331V15.2059H31.4469V15.1265Z" fill="white"/>
<path d="M39.1595 17.7502H40.5242V10.1172H39.1648L37.1706 11.5137V12.8255L39.0696 11.4925H39.1595V17.7502Z" fill="white"/>
</g>
</svg>
