<svg width="13" height="14" viewBox="0 0 13 14" fill="none" xmlns="http://www.w3.org/2000/svg">
<path d="M7.16868 0.841469C7.17797 0.898753 7.18225 0.956726 7.1815 1.01473L7.1815 10.8915L7.28162 10.6761C7.3812 10.4656 7.51673 10.2741 7.68208 10.1101L10.4503 7.34045C10.7983 6.97568 11.3582 6.91439 11.7768 7.19521C12.2229 7.52204 12.3198 8.14882 11.9931 8.5952C11.9667 8.63126 11.9379 8.66554 11.9069 8.69775L6.90118 13.7062C6.51042 14.0976 5.87653 14.098 5.48533 13.707L0.478794 8.69775C0.0883758 8.30602 0.0892514 7.67179 0.480764 7.28113C0.511581 7.2504 0.544368 7.22169 0.578908 7.19521C0.997546 6.91439 1.55741 6.97568 1.90543 7.34045L4.67862 10.1051C4.82567 10.2521 4.94897 10.4211 5.04404 10.606L5.1792 10.9065L5.1792 1.06985C5.16021 0.558146 5.51746 0.1092 6.02017 0.0130682C6.56595 -0.0754881 7.08014 0.295389 7.16868 0.841469Z" fill="white"/>
</svg>
