<svg width="14" height="22" viewBox="0 0 14 22" fill="none" xmlns="http://www.w3.org/2000/svg">
<path d="M12.5254 8.79248C12.6885 8.79248 12.8495 8.88469 12.9382 9.05309C13.0266 9.22231 13.0197 9.43157 12.9205 9.59406C12.9205 9.59418 12.9204 9.5943 12.9203 9.59442L5.86549 21.1035L5.86541 21.1036C5.77244 21.2554 5.62013 21.3333 5.47017 21.3333C5.41956 21.3333 5.36607 21.3242 5.31221 21.3044C5.10905 21.2261 4.96743 21.0013 5.0001 20.7494L5.00025 20.7481L6.05977 12.4178L6.13139 11.8547H5.56377H1.4752C1.30804 11.8547 1.14119 11.756 1.05489 11.579C0.967782 11.4004 0.986154 11.1848 1.09708 11.0278L1.09752 11.0272L8.24764 0.871517L8.24834 0.870517C8.3833 0.677842 8.61284 0.620795 8.79946 0.704286L8.80248 0.705616C9.00106 0.792874 9.13338 1.02261 9.09362 1.27108L9.09361 1.27113L7.98339 8.21352L7.89081 8.79248H8.47712H12.5254Z" stroke="white"/>
</svg>
