<svg width="13" height="14" viewBox="0 0 13 14" fill="none" xmlns="http://www.w3.org/2000/svg">
<path d="M7.29555 13.1585C7.30484 13.1012 7.30913 13.0433 7.30838 12.9853L7.30838 3.10854L7.4085 3.32391C7.50808 3.53442 7.64361 3.72593 7.80896 3.88986L10.5771 6.65955C10.9252 7.02432 11.485 7.08561 11.9037 6.80479C12.3498 6.47796 12.4466 5.85118 12.12 5.4048C12.0936 5.36874 12.0648 5.33446 12.0338 5.30225L7.02806 0.293786C6.6373 -0.0976258 6.00341 -0.0979702 5.61221 0.293003L0.60567 5.30225C0.215253 5.69398 0.216128 6.32821 0.607641 6.71887C0.638458 6.7496 0.671245 6.77831 0.705785 6.80479C1.12442 7.08561 1.68429 7.02432 2.03231 6.65955L4.8055 3.89487C4.95255 3.74791 5.07584 3.57893 5.17092 3.39403L5.30608 3.09352L5.30608 12.9301C5.28709 13.4419 5.64434 13.8908 6.14704 13.9869C6.69283 14.0755 7.20701 13.7046 7.29555 13.1585Z" fill="white"/>
</svg>
